# xmcd
#
# Track frame offsets:
#	150
#	12686
#	23795
#	38117
#	49939
#	63451
#	82516
#	94144
#	113147
#	127419
#	140315
#	150010
#	170453
#	185832
#
# Disc length: 2636 seconds
# Revision: 0
# Processed by: cddbd v1.5.2PL0 Copyright (c) Steve Scherf et al.
# Submitted via: dBpowerAMP V12.0
#
DISCID=b50a4a0e
DTITLE=Laurie Lewis and the Right Hands - The Hazel and Alice Sessions
DYEAR=2016
DGENRE=Country
TTITLE0=Cowboy Jim
TTITLE1=James Alley Blues
TTITLE2=Who's That Knocking?
TTITLE3=Walking in My Sleep
TTITLE4=Mama's Gonna Stay
TTITLE5=Won't You Come and Sing for Me?
TTITLE6=Darling Nellie
TTITLE7=Farewell My Home
TTITLE8=Let That Liar Alone
TTITLE9=You'll Get No More of Me
TTITLE10=Train on the Island
TTITLE11=Working Girl Blues
TTITLE12=I Hear a Sweet Voice Calling
TTITLE13=Pretty Bird
EXTD=
EXTT0=
EXTT1=
EXTT2=
EXTT3=
EXTT4=
EXTT5=
EXTT6=
EXTT7=
EXTT8=
EXTT9=
EXTT10=
EXTT11=
EXTT12=
EXTT13=
PLAYORDER=
